<svg width="100" height="100" viewBox="0 0 100 100" fill="none" xmlns="http://www.w3.org/2000/svg">
<g clip-path="url(#clip0_4071_1482)">
<path d="M0 29.84C0 5.26676 5.26676 0 29.84 0H70.16C94.7332 0 100 5.26676 100 29.84V70.16C100 94.7332 94.7332 100 70.16 100H29.84C5.26676 100 0 94.7332 0 70.16V29.84Z" fill="black"/>
<path fill-rule="evenodd" clip-rule="evenodd" d="M72.3728 44.3698L90.9313 33.8639C85.1062 39.7847 79.0236 45.5377 73.1762 51.4894C77.8634 50.1123 82.2627 48.7669 86.9988 47.4685C85.291 48.5941 83.4442 49.9532 81.7563 51.1397C78.1727 53.725 74.4006 56.2836 70.7567 58.7913C70.5612 60.1938 70.2113 61.6184 69.844 62.9866C69.2185 65.3142 66.2827 74.9066 65.0927 76.5783C64.8384 76.9356 64.5351 77.2191 64.1914 77.4875C62.2973 78.9644 60.1878 80.2719 58.2005 81.6295C56.4095 82.8534 54.6063 84.2361 52.7168 85.2927C52.1302 85.6203 51.5184 85.8492 50.8532 85.9564C49.9268 86.1114 48.9751 86.0186 48.0967 85.6872C47.1296 85.3155 44.9426 83.7702 44.0123 83.1461C41.4169 81.3924 38.8364 79.6159 36.2713 77.8189C35.6569 77.3788 35.0299 76.8983 34.6764 76.224C34.0137 74.9607 33.4919 73.2838 33.0284 71.9155C31.5526 67.5575 29.9909 63.3736 29.2386 58.8218C23.7895 55.0856 18.3717 51.3046 12.9859 47.4782C17.5998 48.7236 22.1876 50.0628 26.7464 51.4947C24.9991 49.5813 22.7017 47.4052 20.8436 45.5658C16.8946 41.7102 12.9696 37.8305 9.0686 33.9268C9.43834 34.1142 9.79965 34.3261 10.1656 34.5211C16.0759 37.6712 21.8132 41.1185 27.6503 44.3944C22.5146 36.2387 17.4398 28.0451 12.4265 19.8143C12.8604 20.0248 15.7018 23.0974 16.1981 23.6044C21.9733 29.5029 27.7064 35.4422 33.3969 41.4219C40.9105 31.9019 54.6673 30.5645 63.9432 38.594C64.949 39.4648 65.7388 40.3965 66.5812 41.4133C71.9749 35.6941 77.5022 30.0785 82.9623 24.4218C84.5059 22.8225 86.0883 21.1354 87.6968 19.6078L72.3728 44.3698ZM64.9804 67.7977C62.8358 68.9319 53.33 74.6362 52.5013 76.0675C52.5723 76.2917 52.5479 76.2188 52.832 76.37C55.6442 75.9595 59.2384 74.6186 61.981 73.7369C62.8433 73.4602 65.1117 68.9008 65.2759 67.9962L65.1919 67.8327C65.1018 67.8107 65.0689 67.7924 64.9804 67.7977ZM34.7123 67.7612C34.6596 68.5579 37.2001 73.4936 37.9384 73.7308C39.3745 74.1923 46.3909 76.5874 47.4158 76.2947C47.44 76.2217 47.5214 76.0736 47.4542 76.0173C45.5344 74.4195 36.7464 68.0289 34.7123 67.7612Z" fill="white"/>
</g>
<defs>
<clipPath id="clip0_4071_1482">
<rect width="100" height="100" fill="white"/>
</clipPath>
</defs>
</svg>
